<mxfile host="Electron" modified="2023-11-18T19:53:26.409Z" agent="Mozilla/5.0 (X11; Linux x86_64) AppleWebKit/537.36 (KHTML, like Gecko) draw.io/22.1.2 Chrome/114.0.5735.289 Electron/25.9.4 Safari/537.36" etag="-RcByYgFfPo2_mubZLN6" version="22.1.2" type="device">
  <diagram name="Page-1" id="F_hivyQ5DFcQ6GrOG33M">
    <mxGraphModel dx="1886" dy="1069" grid="1" gridSize="10" guides="1" tooltips="1" connect="1" arrows="1" fold="1" page="1" pageScale="1" pageWidth="1169" pageHeight="827" math="0" shadow="0">
      <root>
        <mxCell id="0" />
        <mxCell id="1" parent="0" />
        <mxCell id="fCks7QzIpieRSXXq4J3l-1" value="Оказание услуг" style="swimlane;whiteSpace=wrap;html=1;strokeWidth=2;" parent="1" vertex="1">
          <mxGeometry x="20" y="20" width="560" height="370" as="geometry" />
        </mxCell>
        <mxCell id="fCks7QzIpieRSXXq4J3l-10" style="edgeStyle=orthogonalEdgeStyle;rounded=1;orthogonalLoop=1;jettySize=auto;html=1;exitX=0.5;exitY=1;exitDx=0;exitDy=0;entryX=1;entryY=0.5;entryDx=0;entryDy=0;jumpStyle=arc;" parent="fCks7QzIpieRSXXq4J3l-1" source="fCks7QzIpieRSXXq4J3l-6" target="fCks7QzIpieRSXXq4J3l-8" edge="1">
          <mxGeometry relative="1" as="geometry" />
        </mxCell>
        <mxCell id="fCks7QzIpieRSXXq4J3l-3" value="Заказ" style="rounded=1;whiteSpace=wrap;html=1;strokeWidth=2;" parent="fCks7QzIpieRSXXq4J3l-1" vertex="1">
          <mxGeometry x="210" y="40" width="120" height="60" as="geometry" />
        </mxCell>
        <mxCell id="fCks7QzIpieRSXXq4J3l-4" style="edgeStyle=orthogonalEdgeStyle;rounded=1;orthogonalLoop=1;jettySize=auto;html=1;exitX=0.5;exitY=0;exitDx=0;exitDy=0;entryX=0;entryY=0.5;entryDx=0;entryDy=0;" parent="fCks7QzIpieRSXXq4J3l-1" source="fCks7QzIpieRSXXq4J3l-5" target="fCks7QzIpieRSXXq4J3l-3" edge="1">
          <mxGeometry relative="1" as="geometry" />
        </mxCell>
        <mxCell id="fCks7QzIpieRSXXq4J3l-5" value="Клиент" style="rounded=1;whiteSpace=wrap;html=1;strokeWidth=2;" parent="fCks7QzIpieRSXXq4J3l-1" vertex="1">
          <mxGeometry x="30" y="130" width="120" height="60" as="geometry" />
        </mxCell>
        <mxCell id="fCks7QzIpieRSXXq4J3l-6" value="Воркер" style="rounded=1;whiteSpace=wrap;html=1;strokeWidth=2;" parent="fCks7QzIpieRSXXq4J3l-1" vertex="1">
          <mxGeometry x="420" y="40" width="120" height="60" as="geometry" />
        </mxCell>
        <mxCell id="fCks7QzIpieRSXXq4J3l-7" style="edgeStyle=orthogonalEdgeStyle;rounded=0;orthogonalLoop=1;jettySize=auto;html=1;exitX=1;exitY=0.5;exitDx=0;exitDy=0;" parent="fCks7QzIpieRSXXq4J3l-1" source="fCks7QzIpieRSXXq4J3l-3" target="fCks7QzIpieRSXXq4J3l-6" edge="1">
          <mxGeometry relative="1" as="geometry" />
        </mxCell>
        <mxCell id="fCks7QzIpieRSXXq4J3l-8" value="Счет (Баланс)" style="rounded=1;whiteSpace=wrap;html=1;" parent="fCks7QzIpieRSXXq4J3l-1" vertex="1">
          <mxGeometry x="210" y="260" width="120" height="60" as="geometry" />
        </mxCell>
        <mxCell id="fCks7QzIpieRSXXq4J3l-9" style="edgeStyle=orthogonalEdgeStyle;rounded=1;orthogonalLoop=1;jettySize=auto;html=1;exitX=0.5;exitY=1;exitDx=0;exitDy=0;entryX=0;entryY=0.5;entryDx=0;entryDy=0;" parent="fCks7QzIpieRSXXq4J3l-1" source="fCks7QzIpieRSXXq4J3l-5" target="fCks7QzIpieRSXXq4J3l-8" edge="1">
          <mxGeometry relative="1" as="geometry" />
        </mxCell>
        <mxCell id="fCks7QzIpieRSXXq4J3l-11" style="edgeStyle=orthogonalEdgeStyle;rounded=0;orthogonalLoop=1;jettySize=auto;html=1;exitX=0.5;exitY=0;exitDx=0;exitDy=0;entryX=0.5;entryY=1;entryDx=0;entryDy=0;" parent="fCks7QzIpieRSXXq4J3l-1" source="fCks7QzIpieRSXXq4J3l-12" target="fCks7QzIpieRSXXq4J3l-3" edge="1">
          <mxGeometry relative="1" as="geometry" />
        </mxCell>
        <mxCell id="fCks7QzIpieRSXXq4J3l-12" value="Услуга" style="rounded=1;whiteSpace=wrap;html=1;strokeWidth=1;" parent="fCks7QzIpieRSXXq4J3l-1" vertex="1">
          <mxGeometry x="210" y="160" width="120" height="60" as="geometry" />
        </mxCell>
        <mxCell id="fCks7QzIpieRSXXq4J3l-14" value="Расходники" style="swimlane;whiteSpace=wrap;html=1;strokeWidth=2;" parent="1" vertex="1">
          <mxGeometry x="640" y="20" width="350" height="220" as="geometry" />
        </mxCell>
        <mxCell id="fCks7QzIpieRSXXq4J3l-15" value="Материалы" style="rounded=1;whiteSpace=wrap;html=1;strokeWidth=2;" parent="fCks7QzIpieRSXXq4J3l-14" vertex="1">
          <mxGeometry x="30" y="40" width="120" height="60" as="geometry" />
        </mxCell>
        <mxCell id="fCks7QzIpieRSXXq4J3l-44" value="" style="edgeStyle=orthogonalEdgeStyle;rounded=0;orthogonalLoop=1;jettySize=auto;html=1;" parent="fCks7QzIpieRSXXq4J3l-14" source="fCks7QzIpieRSXXq4J3l-43" target="fCks7QzIpieRSXXq4J3l-15" edge="1">
          <mxGeometry relative="1" as="geometry" />
        </mxCell>
        <mxCell id="fCks7QzIpieRSXXq4J3l-43" value="Сотрудник" style="rounded=1;whiteSpace=wrap;html=1;strokeWidth=2;" parent="fCks7QzIpieRSXXq4J3l-14" vertex="1">
          <mxGeometry x="30" y="127" width="120" height="60" as="geometry" />
        </mxCell>
        <mxCell id="fCks7QzIpieRSXXq4J3l-46" value="" style="edgeStyle=orthogonalEdgeStyle;rounded=0;orthogonalLoop=1;jettySize=auto;html=1;" parent="fCks7QzIpieRSXXq4J3l-14" source="fCks7QzIpieRSXXq4J3l-45" target="fCks7QzIpieRSXXq4J3l-15" edge="1">
          <mxGeometry relative="1" as="geometry" />
        </mxCell>
        <mxCell id="fCks7QzIpieRSXXq4J3l-45" value="Заказ" style="rounded=1;whiteSpace=wrap;html=1;" parent="fCks7QzIpieRSXXq4J3l-14" vertex="1">
          <mxGeometry x="170" y="40" width="120" height="60" as="geometry" />
        </mxCell>
        <mxCell id="fCks7QzIpieRSXXq4J3l-17" value="Онбординг воркера" style="swimlane;whiteSpace=wrap;html=1;strokeWidth=2;" parent="1" vertex="1">
          <mxGeometry x="1020" y="310" width="340" height="270" as="geometry" />
        </mxCell>
        <mxCell id="fCks7QzIpieRSXXq4J3l-18" value="" style="edgeStyle=orthogonalEdgeStyle;rounded=0;orthogonalLoop=1;jettySize=auto;html=1;" parent="fCks7QzIpieRSXXq4J3l-17" source="fCks7QzIpieRSXXq4J3l-19" target="fCks7QzIpieRSXXq4J3l-24" edge="1">
          <mxGeometry relative="1" as="geometry" />
        </mxCell>
        <mxCell id="fCks7QzIpieRSXXq4J3l-19" value="Менеджер" style="rounded=1;whiteSpace=wrap;html=1;strokeWidth=1;" parent="fCks7QzIpieRSXXq4J3l-17" vertex="1">
          <mxGeometry x="200" y="145" width="120" height="60" as="geometry" />
        </mxCell>
        <mxCell id="8VoZBCtPtkcEc6Na4JY_-22" style="edgeStyle=orthogonalEdgeStyle;rounded=0;orthogonalLoop=1;jettySize=auto;html=1;exitX=0.5;exitY=1;exitDx=0;exitDy=0;" edge="1" parent="fCks7QzIpieRSXXq4J3l-17" source="fCks7QzIpieRSXXq4J3l-21" target="fCks7QzIpieRSXXq4J3l-24">
          <mxGeometry relative="1" as="geometry">
            <Array as="points">
              <mxPoint x="170" y="130" />
              <mxPoint x="100" y="130" />
            </Array>
          </mxGeometry>
        </mxCell>
        <mxCell id="fCks7QzIpieRSXXq4J3l-21" value="Тест воркера" style="rounded=1;whiteSpace=wrap;html=1;strokeWidth=1;" parent="fCks7QzIpieRSXXq4J3l-17" vertex="1">
          <mxGeometry x="110" y="60" width="120" height="60" as="geometry" />
        </mxCell>
        <mxCell id="fCks7QzIpieRSXXq4J3l-24" value="Заявка воркера" style="rounded=1;whiteSpace=wrap;html=1;strokeWidth=2;" parent="fCks7QzIpieRSXXq4J3l-17" vertex="1">
          <mxGeometry x="40" y="145" width="120" height="60" as="geometry" />
        </mxCell>
        <mxCell id="fCks7QzIpieRSXXq4J3l-26" style="edgeStyle=orthogonalEdgeStyle;orthogonalLoop=1;jettySize=auto;html=1;exitX=-0.017;exitY=0.367;exitDx=0;exitDy=0;entryX=0.75;entryY=1;entryDx=0;entryDy=0;endArrow=none;endFill=0;dashed=1;jumpStyle=arc;curved=1;exitPerimeter=0;" parent="1" source="8VoZBCtPtkcEc6Na4JY_-10" target="fCks7QzIpieRSXXq4J3l-3" edge="1">
          <mxGeometry relative="1" as="geometry">
            <Array as="points">
              <mxPoint x="658" y="712" />
              <mxPoint x="610" y="712" />
              <mxPoint x="610" y="150" />
              <mxPoint x="320" y="150" />
            </Array>
            <mxPoint x="680" y="590" as="sourcePoint" />
          </mxGeometry>
        </mxCell>
        <mxCell id="fCks7QzIpieRSXXq4J3l-27" value="Бухгалтерия" style="swimlane;whiteSpace=wrap;html=1;strokeWidth=2;" parent="1" vertex="1">
          <mxGeometry x="230" y="430" width="330" height="290" as="geometry" />
        </mxCell>
        <mxCell id="fCks7QzIpieRSXXq4J3l-28" style="edgeStyle=orthogonalEdgeStyle;rounded=0;orthogonalLoop=1;jettySize=auto;html=1;exitX=0.5;exitY=0;exitDx=0;exitDy=0;entryX=0.5;entryY=1;entryDx=0;entryDy=0;" parent="fCks7QzIpieRSXXq4J3l-27" edge="1">
          <mxGeometry relative="1" as="geometry">
            <mxPoint x="300" y="150" as="targetPoint" />
          </mxGeometry>
        </mxCell>
        <mxCell id="fCks7QzIpieRSXXq4J3l-29" style="edgeStyle=orthogonalEdgeStyle;rounded=0;orthogonalLoop=1;jettySize=auto;html=1;exitX=0.5;exitY=0;exitDx=0;exitDy=0;entryX=0;entryY=0.5;entryDx=0;entryDy=0;" parent="fCks7QzIpieRSXXq4J3l-27" edge="1">
          <mxGeometry relative="1" as="geometry">
            <mxPoint x="240" y="217" as="targetPoint" />
          </mxGeometry>
        </mxCell>
        <mxCell id="fCks7QzIpieRSXXq4J3l-30" style="edgeStyle=orthogonalEdgeStyle;rounded=0;orthogonalLoop=1;jettySize=auto;html=1;exitX=1;exitY=0.5;exitDx=0;exitDy=0;" parent="fCks7QzIpieRSXXq4J3l-27" edge="1">
          <mxGeometry relative="1" as="geometry">
            <mxPoint x="360" y="217" as="sourcePoint" />
          </mxGeometry>
        </mxCell>
        <mxCell id="fCks7QzIpieRSXXq4J3l-31" value="Счет (Баланс)" style="rounded=1;whiteSpace=wrap;html=1;strokeWidth=2;" parent="fCks7QzIpieRSXXq4J3l-27" vertex="1">
          <mxGeometry x="20" y="80" width="120" height="60" as="geometry" />
        </mxCell>
        <mxCell id="fCks7QzIpieRSXXq4J3l-32" style="edgeStyle=orthogonalEdgeStyle;rounded=0;orthogonalLoop=1;jettySize=auto;html=1;exitX=0.5;exitY=0;exitDx=0;exitDy=0;entryX=0.5;entryY=1;entryDx=0;entryDy=0;" parent="fCks7QzIpieRSXXq4J3l-27" edge="1">
          <mxGeometry relative="1" as="geometry">
            <mxPoint x="300" y="247" as="targetPoint" />
          </mxGeometry>
        </mxCell>
        <mxCell id="fCks7QzIpieRSXXq4J3l-33" value="Транзакция" style="rounded=1;whiteSpace=wrap;html=1;strokeWidth=2;" parent="fCks7QzIpieRSXXq4J3l-27" vertex="1">
          <mxGeometry x="20" y="170" width="120" height="60" as="geometry" />
        </mxCell>
        <mxCell id="fCks7QzIpieRSXXq4J3l-34" value="" style="edgeStyle=orthogonalEdgeStyle;rounded=0;orthogonalLoop=1;jettySize=auto;html=1;" parent="fCks7QzIpieRSXXq4J3l-27" source="fCks7QzIpieRSXXq4J3l-31" target="fCks7QzIpieRSXXq4J3l-33" edge="1">
          <mxGeometry relative="1" as="geometry" />
        </mxCell>
        <mxCell id="8VoZBCtPtkcEc6Na4JY_-18" value="" style="edgeStyle=orthogonalEdgeStyle;rounded=0;orthogonalLoop=1;jettySize=auto;html=1;" edge="1" parent="fCks7QzIpieRSXXq4J3l-27" source="fCks7QzIpieRSXXq4J3l-35" target="fCks7QzIpieRSXXq4J3l-31">
          <mxGeometry relative="1" as="geometry" />
        </mxCell>
        <mxCell id="fCks7QzIpieRSXXq4J3l-35" value="Воркер" style="rounded=1;whiteSpace=wrap;html=1;" parent="fCks7QzIpieRSXXq4J3l-27" vertex="1">
          <mxGeometry x="180" y="80" width="120" height="60" as="geometry" />
        </mxCell>
        <mxCell id="8VoZBCtPtkcEc6Na4JY_-19" style="edgeStyle=orthogonalEdgeStyle;rounded=0;orthogonalLoop=1;jettySize=auto;html=1;exitX=0;exitY=0.5;exitDx=0;exitDy=0;entryX=1;entryY=0.75;entryDx=0;entryDy=0;" edge="1" parent="fCks7QzIpieRSXXq4J3l-27" source="8VoZBCtPtkcEc6Na4JY_-15" target="fCks7QzIpieRSXXq4J3l-31">
          <mxGeometry relative="1" as="geometry" />
        </mxCell>
        <mxCell id="8VoZBCtPtkcEc6Na4JY_-15" value="Клиент" style="rounded=1;whiteSpace=wrap;html=1;strokeWidth=1;" vertex="1" parent="fCks7QzIpieRSXXq4J3l-27">
          <mxGeometry x="180" y="170" width="120" height="60" as="geometry" />
        </mxCell>
        <mxCell id="fCks7QzIpieRSXXq4J3l-37" style="edgeStyle=orthogonalEdgeStyle;orthogonalLoop=1;jettySize=auto;html=1;exitX=0.75;exitY=1;exitDx=0;exitDy=0;entryX=0.5;entryY=0;entryDx=0;entryDy=0;endArrow=none;endFill=0;dashed=1;jumpStyle=arc;curved=1;" parent="1" source="fCks7QzIpieRSXXq4J3l-6" target="fCks7QzIpieRSXXq4J3l-35" edge="1">
          <mxGeometry relative="1" as="geometry">
            <Array as="points">
              <mxPoint x="530" y="490" />
              <mxPoint x="480" y="490" />
            </Array>
          </mxGeometry>
        </mxCell>
        <mxCell id="fCks7QzIpieRSXXq4J3l-38" value="Тоталитаризм жара июль" style="swimlane;whiteSpace=wrap;html=1;strokeWidth=2;" parent="1" vertex="1">
          <mxGeometry x="1010" y="20" width="200" height="240" as="geometry" />
        </mxCell>
        <mxCell id="fCks7QzIpieRSXXq4J3l-39" value="Ставка" style="rounded=1;whiteSpace=wrap;html=1;strokeWidth=2;" parent="fCks7QzIpieRSXXq4J3l-38" vertex="1">
          <mxGeometry x="20" y="50" width="120" height="60" as="geometry" />
        </mxCell>
        <mxCell id="fCks7QzIpieRSXXq4J3l-40" value="Менеджер" style="rounded=1;whiteSpace=wrap;html=1;" parent="fCks7QzIpieRSXXq4J3l-38" vertex="1">
          <mxGeometry x="20" y="160" width="120" height="60" as="geometry" />
        </mxCell>
        <mxCell id="fCks7QzIpieRSXXq4J3l-41" value="" style="edgeStyle=orthogonalEdgeStyle;rounded=0;orthogonalLoop=1;jettySize=auto;html=1;" parent="fCks7QzIpieRSXXq4J3l-38" source="fCks7QzIpieRSXXq4J3l-40" target="fCks7QzIpieRSXXq4J3l-39" edge="1">
          <mxGeometry relative="1" as="geometry" />
        </mxCell>
        <mxCell id="fCks7QzIpieRSXXq4J3l-42" value="" style="edgeStyle=orthogonalEdgeStyle;orthogonalLoop=1;jettySize=auto;html=1;exitX=1;exitY=0.5;exitDx=0;exitDy=0;endArrow=none;endFill=0;dashed=1;curved=1;entryX=1.033;entryY=0.4;entryDx=0;entryDy=0;entryPerimeter=0;" parent="1" source="fCks7QzIpieRSXXq4J3l-19" target="8VoZBCtPtkcEc6Na4JY_-3" edge="1">
          <mxGeometry relative="1" as="geometry">
            <mxPoint x="960" y="420" as="sourcePoint" />
            <mxPoint x="1130" y="-60" as="targetPoint" />
            <Array as="points">
              <mxPoint x="1360" y="524" />
              <mxPoint x="1360" y="600" />
              <mxPoint x="1080" y="600" />
              <mxPoint x="1080" y="580" />
              <mxPoint x="964" y="580" />
            </Array>
          </mxGeometry>
        </mxCell>
        <mxCell id="fCks7QzIpieRSXXq4J3l-63" style="edgeStyle=orthogonalEdgeStyle;orthogonalLoop=1;jettySize=auto;html=1;exitX=0.5;exitY=0;exitDx=0;exitDy=0;entryX=0.5;entryY=0;entryDx=0;entryDy=0;endArrow=none;endFill=0;dashed=1;curved=1;" parent="1" source="fCks7QzIpieRSXXq4J3l-3" target="fCks7QzIpieRSXXq4J3l-45" edge="1">
          <mxGeometry relative="1" as="geometry">
            <Array as="points">
              <mxPoint x="290" y="50" />
              <mxPoint x="870" y="50" />
            </Array>
          </mxGeometry>
        </mxCell>
        <mxCell id="fCks7QzIpieRSXXq4J3l-64" style="edgeStyle=orthogonalEdgeStyle;orthogonalLoop=1;jettySize=auto;html=1;exitX=0.5;exitY=0;exitDx=0;exitDy=0;curved=1;dashed=1;endArrow=none;endFill=0;" parent="1" source="fCks7QzIpieRSXXq4J3l-31" target="fCks7QzIpieRSXXq4J3l-8" edge="1">
          <mxGeometry relative="1" as="geometry" />
        </mxCell>
        <mxCell id="8VoZBCtPtkcEc6Na4JY_-1" value="Управление и контроль качества" style="swimlane;whiteSpace=wrap;html=1;strokeWidth=2;" vertex="1" parent="1">
          <mxGeometry x="640" y="290" width="340" height="360" as="geometry" />
        </mxCell>
        <mxCell id="8VoZBCtPtkcEc6Na4JY_-17" value="" style="edgeStyle=orthogonalEdgeStyle;rounded=0;orthogonalLoop=1;jettySize=auto;html=1;" edge="1" parent="8VoZBCtPtkcEc6Na4JY_-1" source="8VoZBCtPtkcEc6Na4JY_-3" target="8VoZBCtPtkcEc6Na4JY_-13">
          <mxGeometry relative="1" as="geometry" />
        </mxCell>
        <mxCell id="8VoZBCtPtkcEc6Na4JY_-3" value="Менеджер" style="rounded=1;whiteSpace=wrap;html=1;strokeWidth=2;" vertex="1" parent="8VoZBCtPtkcEc6Na4JY_-1">
          <mxGeometry x="200" y="120" width="120" height="60" as="geometry" />
        </mxCell>
        <mxCell id="8VoZBCtPtkcEc6Na4JY_-4" value="" style="edgeStyle=orthogonalEdgeStyle;rounded=0;orthogonalLoop=1;jettySize=auto;html=1;" edge="1" parent="8VoZBCtPtkcEc6Na4JY_-1" source="8VoZBCtPtkcEc6Na4JY_-5" target="8VoZBCtPtkcEc6Na4JY_-10">
          <mxGeometry relative="1" as="geometry" />
        </mxCell>
        <mxCell id="8VoZBCtPtkcEc6Na4JY_-5" value="Контроль&lt;br&gt;качества" style="rounded=1;whiteSpace=wrap;html=1;strokeWidth=2;" vertex="1" parent="8VoZBCtPtkcEc6Na4JY_-1">
          <mxGeometry x="40" y="200" width="120" height="60" as="geometry" />
        </mxCell>
        <mxCell id="8VoZBCtPtkcEc6Na4JY_-6" value="Тесты воркера" style="rounded=1;whiteSpace=wrap;html=1;strokeWidth=2;" vertex="1" parent="8VoZBCtPtkcEc6Na4JY_-1">
          <mxGeometry x="40" y="40" width="120" height="60" as="geometry" />
        </mxCell>
        <mxCell id="8VoZBCtPtkcEc6Na4JY_-7" style="edgeStyle=orthogonalEdgeStyle;rounded=1;orthogonalLoop=1;jettySize=auto;html=1;exitX=0.5;exitY=1;exitDx=0;exitDy=0;entryX=1;entryY=0.5;entryDx=0;entryDy=0;" edge="1" parent="8VoZBCtPtkcEc6Na4JY_-1" source="8VoZBCtPtkcEc6Na4JY_-3" target="8VoZBCtPtkcEc6Na4JY_-5">
          <mxGeometry relative="1" as="geometry" />
        </mxCell>
        <mxCell id="8VoZBCtPtkcEc6Na4JY_-8" style="edgeStyle=orthogonalEdgeStyle;rounded=1;orthogonalLoop=1;jettySize=auto;html=1;exitX=0.5;exitY=0;exitDx=0;exitDy=0;entryX=1;entryY=0.5;entryDx=0;entryDy=0;" edge="1" parent="8VoZBCtPtkcEc6Na4JY_-1" source="8VoZBCtPtkcEc6Na4JY_-3" target="8VoZBCtPtkcEc6Na4JY_-6">
          <mxGeometry relative="1" as="geometry" />
        </mxCell>
        <mxCell id="8VoZBCtPtkcEc6Na4JY_-10" value="Заказ" style="rounded=1;whiteSpace=wrap;html=1;" vertex="1" parent="8VoZBCtPtkcEc6Na4JY_-1">
          <mxGeometry x="40" y="290" width="120" height="60" as="geometry" />
        </mxCell>
        <mxCell id="8VoZBCtPtkcEc6Na4JY_-11" value="Некоторый HR Space получается" style="shape=note2;boundedLbl=1;whiteSpace=wrap;html=1;size=25;verticalAlign=top;align=center;" vertex="1" parent="8VoZBCtPtkcEc6Na4JY_-1">
          <mxGeometry x="220" y="270" width="120" height="90" as="geometry" />
        </mxCell>
        <mxCell id="8VoZBCtPtkcEc6Na4JY_-13" value="Услуга" style="rounded=1;whiteSpace=wrap;html=1;strokeWidth=2;" vertex="1" parent="8VoZBCtPtkcEc6Na4JY_-1">
          <mxGeometry x="40" y="120" width="120" height="60" as="geometry" />
        </mxCell>
        <mxCell id="8VoZBCtPtkcEc6Na4JY_-14" style="edgeStyle=orthogonalEdgeStyle;orthogonalLoop=1;jettySize=auto;html=1;exitX=0;exitY=0.5;exitDx=0;exitDy=0;entryX=1;entryY=0.5;entryDx=0;entryDy=0;curved=1;dashed=1;endArrow=none;endFill=0;" edge="1" parent="1" source="8VoZBCtPtkcEc6Na4JY_-13" target="fCks7QzIpieRSXXq4J3l-12">
          <mxGeometry relative="1" as="geometry" />
        </mxCell>
        <mxCell id="8VoZBCtPtkcEc6Na4JY_-16" style="edgeStyle=orthogonalEdgeStyle;orthogonalLoop=1;jettySize=auto;html=1;exitX=0.25;exitY=1;exitDx=0;exitDy=0;entryX=0.5;entryY=1;entryDx=0;entryDy=0;endArrow=none;endFill=0;curved=1;dashed=1;" edge="1" parent="1" source="fCks7QzIpieRSXXq4J3l-5" target="8VoZBCtPtkcEc6Na4JY_-15">
          <mxGeometry relative="1" as="geometry" />
        </mxCell>
        <mxCell id="8VoZBCtPtkcEc6Na4JY_-20" style="edgeStyle=orthogonalEdgeStyle;orthogonalLoop=1;jettySize=auto;html=1;exitX=1;exitY=0.5;exitDx=0;exitDy=0;endArrow=none;endFill=0;dashed=1;curved=1;" edge="1" parent="1" source="8VoZBCtPtkcEc6Na4JY_-3" target="fCks7QzIpieRSXXq4J3l-40">
          <mxGeometry relative="1" as="geometry" />
        </mxCell>
        <mxCell id="8VoZBCtPtkcEc6Na4JY_-21" style="edgeStyle=orthogonalEdgeStyle;orthogonalLoop=1;jettySize=auto;html=1;exitX=1;exitY=0.25;exitDx=0;exitDy=0;curved=1;endArrow=none;endFill=0;dashed=1;" edge="1" parent="1" source="8VoZBCtPtkcEc6Na4JY_-6" target="fCks7QzIpieRSXXq4J3l-21">
          <mxGeometry relative="1" as="geometry" />
        </mxCell>
      </root>
    </mxGraphModel>
  </diagram>
</mxfile>
